<svg width="133" height="17" viewBox="0 0 133 17" fill="none" xmlns="http://www.w3.org/2000/svg">
<path d="M103.437 9L102.125 10.0045L103.437 11.1763" stroke="white" stroke-width="0.75" stroke-linecap="round" stroke-linejoin="round"/>
<path d="M102.125 10.0045H106.436C107.727 10.0045 108.823 10.9454 108.873 12.0971C108.926 13.3141 107.8 14.3571 106.436 14.3571H103.25" stroke="white" stroke-width="0.75" stroke-linecap="round" stroke-linejoin="round"/>
<path d="M114.618 10.5V12.11H116.319V10.5H114.618ZM114.121 10.031H116.844V12.572H114.121V10.031ZM112.574 8.407H118.426V14.553H117.866V8.939H113.113V14.553H112.574V8.407ZM112.875 13.685H118.188V14.182H112.875V13.685ZM120.582 11.389H124.432V11.816H120.582V11.389ZM120.582 12.537H124.432V12.957H120.582V12.537ZM120.582 13.692H124.453V14.161H120.582V13.692ZM119.371 9.093H125.636V9.583H119.371V9.093ZM120.169 10.234H124.824V14.56H124.285V10.696H120.694V14.56H120.169V10.234ZM122.241 9.345L122.885 9.387C122.752 9.8 122.584 10.241 122.458 10.542L121.947 10.465C122.066 10.15 122.185 9.674 122.241 9.345ZM123.907 8.113L124.488 8.267C124.236 8.645 123.928 9.037 123.676 9.303L123.221 9.156C123.459 8.869 123.746 8.428 123.907 8.113ZM120.589 8.302L121.051 8.099C121.31 8.344 121.583 8.694 121.723 8.932L121.233 9.184C121.114 8.939 120.834 8.568 120.589 8.302ZM127.778 11.067V11.711H131.313V11.067H127.778ZM127.778 12.117V12.761H131.313V12.117H127.778ZM127.778 10.031V10.661H131.313V10.031H127.778ZM127.232 9.611H131.873V13.181H127.232V9.611ZM130.018 13.643L130.389 13.3C131.215 13.573 132.111 13.937 132.657 14.21L132.167 14.567C131.67 14.294 130.837 13.923 130.018 13.643ZM126.567 8.484H132.412V8.967H126.567V8.484ZM129.234 8.687L129.85 8.764C129.731 9.163 129.598 9.59 129.486 9.877L128.989 9.786C129.087 9.478 129.192 9.009 129.234 8.687ZM128.513 13.265L128.989 13.608C128.38 13.979 127.428 14.35 126.679 14.56C126.595 14.448 126.434 14.266 126.315 14.154C127.071 13.951 128.03 13.587 128.513 13.265Z" fill="white"/>
<g clip-path="url(#clip0_1468_1946)">
<path d="M60.896 7.1805H60.5432V15.1239H60.896V7.1805Z" fill="white"/>
<path d="M66.5698 9.14489H66.8844C67.6187 9.14489 68.2385 9.15442 68.0955 10.1271C67.9525 11.0616 67.285 11.0616 66.5984 11.0616H66.2837L66.5698 9.14489ZM63.7758 15.2192H65.6639L66.0453 12.6732H67.1133C68.7535 12.6732 69.8024 11.8817 70.0694 10.0603C70.3364 8.2962 69.3733 7.53333 67.8094 7.53333H64.9296L63.7853 15.2192H63.7758Z" fill="white"/>
<path d="M77.9174 7.90523L77.4406 11.1188H77.4597C77.8602 10.6516 78.2989 10.4322 78.8615 10.4322C79.8914 10.4322 80.2823 11.157 80.1202 12.2536L79.7292 14.895H78.2893L78.6231 12.6827C78.6994 12.1773 78.7089 11.6528 78.1272 11.6528C77.5455 11.6528 77.2976 12.1773 77.2213 12.6827L76.8876 14.895H75.4381L76.4775 7.91476H77.927L77.9174 7.90523Z" fill="white"/>
<path d="M83.1336 11.7672C83.7248 11.7672 83.9918 12.2154 83.9155 12.7399C83.8297 13.2834 83.4292 13.7126 82.838 13.7126C82.2468 13.7126 81.9702 13.293 82.056 12.7399C82.1323 12.2154 82.5424 11.7672 83.1336 11.7672ZM83.3338 10.4322C82.0274 10.4322 80.7592 11.2618 80.5398 12.7399C80.3205 14.2084 81.3504 15.038 82.6473 15.038C83.9441 15.038 85.2219 14.2084 85.4413 12.7399C85.6606 11.2714 84.6403 10.4322 83.3338 10.4322Z" fill="white"/>
<path d="M87.6251 11.1188H87.6441C88.0542 10.642 88.5119 10.4418 89.0364 10.4418C89.6276 10.4418 90.0949 10.6897 90.3046 11.2618C90.667 10.7278 91.2487 10.4418 91.8113 10.4418C92.8412 10.4418 93.0891 11.157 92.9461 12.1487L92.536 14.9045H91.0866L91.3917 12.8448C91.4585 12.3966 91.5825 11.6624 90.9722 11.6624C90.3046 11.6624 90.1807 12.3299 90.1044 12.8448L89.7992 14.9045H88.3498L88.6549 12.8448C88.7312 12.368 88.8361 11.6337 88.1972 11.6337C87.5583 11.6337 87.4439 12.368 87.3771 12.8448L87.072 14.9045H85.6321L86.2805 10.5848H87.73L87.6537 11.1188H87.6251Z" fill="white"/>
<path d="M94.8913 12.1105C95.0439 11.6624 95.4253 11.4335 95.8545 11.4335C96.2454 11.4335 96.5601 11.7005 96.5697 12.1105H94.8913ZM97.7998 12.8353C98.0191 11.3667 97.3421 10.4322 95.9308 10.4322C94.6053 10.4322 93.5468 11.3 93.3275 12.7399C93.1081 14.2275 93.995 15.038 95.3395 15.038C96.2645 15.038 97.2467 14.5708 97.6281 13.56H96.2359C96.0356 13.8461 95.7972 13.951 95.4826 13.951C94.8818 13.951 94.6243 13.6172 94.7197 12.9878H97.7616L97.7902 12.8257L97.7998 12.8353Z" fill="white"/>
<path d="M85.8704 7.85755C86.1564 7.85755 86.3185 8.12455 86.2804 8.39155C86.2423 8.63949 85.9848 8.96371 85.7082 8.96371C85.4317 8.96371 85.2696 8.64902 85.3077 8.39155C85.3459 8.12455 85.5843 7.85755 85.8704 7.85755ZM85.6606 9.27839C86.1469 9.27839 86.5379 8.87788 86.6046 8.40109C86.6714 7.93383 86.3948 7.53333 85.918 7.53333C85.4412 7.53333 85.0407 7.94337 84.974 8.40109C84.9072 8.87788 85.1838 9.27839 85.6606 9.27839Z" fill="white"/>
<path d="M87.9874 7.53333H88.2163L88.9219 8.68717L89.0936 7.58101H89.4083L89.1603 9.26885H88.9315L88.2258 8.10548L88.0637 9.23071H87.7395L87.9874 7.53333Z" fill="white"/>
<path d="M90.8672 8.95417H91.325L91.2773 9.23071H90.5049L90.7433 7.58101H91.0675L90.8672 8.95417Z" fill="white"/>
<path d="M92.803 9.23071H92.4788L92.7267 7.58101H93.0509L92.803 9.23071Z" fill="white"/>
<path d="M94.3859 7.53333H94.6147L95.3204 8.68717L95.492 7.58101H95.8067L95.5588 9.26885H95.3299L94.6243 8.10548L94.4622 9.23071H94.1379L94.3859 7.53333Z" fill="white"/>
<path d="M97.4278 7.85755L97.3706 8.22944H97.8855L97.8474 8.50598H97.3324L97.2657 8.95417H97.7997L97.752 9.23071H96.9033L97.1417 7.58101H97.9999L97.9618 7.85755H97.4278Z" fill="white"/>
<path d="M75.6098 10.1748L75.9531 7.89569C75.5717 7.71451 75.1903 7.60008 74.7707 7.5524L74.4941 9.40235C74.9709 9.48818 75.381 9.74565 75.6194 10.1748" fill="white"/>
<path d="M75.2475 12.6064C74.8756 12.9974 74.3797 13.2739 73.8934 13.3502L73.6168 15.2002C74.0364 15.1525 74.4178 15.038 74.9137 14.8759L75.257 12.5969L75.2475 12.6064Z" fill="white"/>
<path d="M73.6072 15.2097L73.8838 13.3597C73.7789 13.3788 73.6835 13.3883 73.5786 13.3883C72.4629 13.3883 71.8336 12.5587 72.0052 11.3953C72.1769 10.2606 73.0542 9.36421 74.1508 9.36421C74.2652 9.36421 74.3701 9.37375 74.4845 9.39282L74.7611 7.54286C74.6276 7.52379 74.4941 7.52379 74.3606 7.52379C73.3879 7.52379 72.3485 7.97198 71.557 8.70624C70.7942 9.42143 70.2887 10.3845 70.1457 11.3858C69.9836 12.4729 70.1934 13.4265 70.8418 14.1512C71.4521 14.8378 72.3103 15.2288 73.2735 15.2288C73.3879 15.2288 73.5023 15.2288 73.6072 15.2097Z" fill="white"/>
<path d="M41.9386 14.0749C42.301 14.4373 42.7206 14.7234 43.1974 14.9236C43.6742 15.1334 44.1986 15.2097 44.7517 15.2383C45.6386 15.2764 46.4491 14.6566 46.8591 14.2084V15.3813H48.7472V11.2523C48.7472 10.7088 48.6424 10.1938 48.4326 9.7075C48.2228 9.22117 47.9367 8.79206 47.5743 8.4297C47.212 8.06734 46.7829 7.77172 46.2965 7.57147C45.8102 7.36168 45.2953 7.25679 44.7517 7.25679C44.2082 7.25679 43.6742 7.36168 43.1974 7.57147C42.7206 7.78126 42.2915 8.06734 41.9386 8.4297C41.5763 8.79206 41.2902 9.22117 41.09 9.7075C40.8802 10.1938 40.7753 10.7088 40.7753 11.2523C40.7753 11.7959 40.8802 12.3299 41.09 12.8067C41.2997 13.2834 41.5858 13.7126 41.9386 14.0654M42.6538 11.2523C42.6538 10.9662 42.7111 10.6802 42.8159 10.4227C42.9208 10.1652 43.0734 9.93636 43.2641 9.74565C43.4548 9.55493 43.6837 9.40236 43.9316 9.29746C44.437 9.07814 45.0569 9.07814 45.5718 9.29746C45.8293 9.40236 46.0581 9.55493 46.2489 9.74565C46.4396 9.93636 46.5921 10.1652 46.697 10.4227C46.8019 10.6802 46.8591 10.9567 46.8591 11.2523C46.8591 12.4157 45.9151 13.3502 44.7422 13.3502C44.4561 13.3502 44.1796 13.293 43.9221 13.1881C43.6646 13.0832 43.4453 12.9306 43.2546 12.7399C43.0639 12.5492 42.9113 12.3203 42.8064 12.0724C42.7015 11.8245 42.6443 11.5479 42.6443 11.2523" fill="white"/>
<path d="M34.9108 8.47738C34.5485 8.11501 34.1098 7.8194 33.633 7.60961C33.1467 7.39983 32.6127 7.29493 32.0501 7.29493C30.9058 7.29493 30.2478 7.60961 29.895 7.86708V4.18624H27.9878V11.3286C27.9878 11.8817 28.0927 12.4061 28.3025 12.902C28.5123 13.3883 28.8079 13.827 29.1798 14.1989C29.5517 14.5708 29.9903 14.8664 30.4767 15.0762C30.9725 15.286 31.497 15.3909 32.0501 15.3909C32.6031 15.3909 33.1467 15.286 33.633 15.0762C34.1193 14.8664 34.5485 14.5708 34.9108 14.1989C35.2732 13.827 35.5688 13.3883 35.7786 12.902C35.9884 12.4061 36.0933 11.8817 36.0933 11.3286C36.0933 10.7755 35.9884 10.232 35.7786 9.74565C35.5688 9.25932 35.2732 8.8302 34.9108 8.46784M34.1861 11.3381C34.1861 11.6337 34.1289 11.9198 34.024 12.1773C33.9096 12.4443 33.757 12.6732 33.5663 12.8639C33.3756 13.0546 33.1467 13.2167 32.8892 13.3216C32.3743 13.5409 31.7449 13.5409 31.2204 13.3216C30.9534 13.2072 30.7246 13.0546 30.5339 12.8639C30.3431 12.6732 30.181 12.4348 30.0761 12.1773C29.9617 11.9198 29.914 11.6337 29.914 11.3381C29.914 10.1557 30.8772 9.2021 32.0691 9.2021C32.3648 9.2021 32.6413 9.25932 32.8988 9.36421C33.1562 9.47864 33.3851 9.63122 33.5758 9.82193C33.7665 10.0126 33.9286 10.251 34.0335 10.5085C34.148 10.766 34.1956 11.0425 34.1956 11.3381" fill="white"/>
<path d="M22.3139 8.47738C21.9515 8.11501 21.5129 7.8194 21.0361 7.60961C20.5498 7.39983 20.0158 7.29493 19.4531 7.29493C18.3088 7.29493 17.6509 7.60961 17.298 7.86708V4.18624H15.3909V11.3286C15.3909 11.8817 15.4958 12.4061 15.7056 12.902C15.9153 13.3883 16.211 13.827 16.5829 14.1989C16.9547 14.5708 17.3934 14.8664 17.8797 15.0762C18.3756 15.286 18.9001 15.3909 19.4531 15.3909C20.0062 15.3909 20.5498 15.286 21.0361 15.0762C21.5224 14.8664 21.9515 14.5708 22.3139 14.1989C22.6763 13.827 22.9719 13.3883 23.1817 12.902C23.3915 12.4061 23.4963 11.8817 23.4963 11.3286C23.4963 10.7755 23.3915 10.232 23.1817 9.74565C22.9719 9.25932 22.6763 8.8302 22.3139 8.46784M21.5892 11.3381C21.5892 11.6337 21.532 11.9198 21.4271 12.1773C21.3126 12.4443 21.1601 12.6732 20.9693 12.8639C20.7786 13.0546 20.5498 13.2167 20.2923 13.3216C19.7774 13.5409 19.148 13.5409 18.6235 13.3216C18.3565 13.2072 18.1277 13.0546 17.9369 12.8639C17.7462 12.6732 17.5841 12.4348 17.4792 12.1773C17.3648 11.9198 17.3171 11.6337 17.3171 11.3381C17.3171 10.1557 18.2802 9.2021 19.4722 9.2021C19.7678 9.2021 20.0444 9.25932 20.3018 9.36421C20.5593 9.47864 20.7882 9.63122 20.9789 9.82193C21.1696 10.0126 21.3317 10.251 21.4366 10.5085C21.551 10.766 21.5987 11.0425 21.5987 11.3381" fill="white"/>
<path d="M26.7671 10.1366H24.879V15.3623H26.7671V10.1366Z" fill="white"/>
<path d="M26.7671 7.43797H24.879V9.38328H26.7671V7.43797Z" fill="white"/>
<path d="M39.3163 10.1366H37.4282V15.3623H39.3163V10.1366Z" fill="white"/>
<path d="M39.3163 7.43797H37.4282V9.38328H39.3163V7.43797Z" fill="white"/>
<path d="M57.6729 9.73611C57.4631 9.24978 57.1675 8.82067 56.7956 8.4583C56.4237 8.09594 55.9946 7.80033 55.5082 7.59054C55.0219 7.38075 54.4879 7.27586 53.9253 7.27586C53.3627 7.27586 52.8477 7.38075 52.3519 7.59054C51.8655 7.80033 51.4269 8.09594 51.0645 8.4583C50.7022 8.82067 50.4066 9.25932 50.1968 9.73611C49.987 10.2224 49.8821 10.7564 49.8821 11.3191V15.3813H51.7893V11.3191C51.7893 11.0235 51.8465 10.7469 51.9514 10.4894C52.0658 10.232 52.2184 10.0031 52.4091 9.8124C52.5998 9.62168 52.8287 9.45957 53.0861 9.35468C53.6011 9.13535 54.2304 9.13535 54.7549 9.35468C55.0219 9.46911 55.2508 9.62168 55.4415 9.8124C55.6322 10.0031 55.7943 10.232 55.8992 10.4894C56.0136 10.7469 56.0613 11.0235 56.0613 11.3191V15.3813H57.9685V11.3191C57.9685 10.7564 57.8636 10.2224 57.6538 9.73611" fill="white"/>
<path d="M43.5121 4.84422V2.97519H44.9329V2.41257H43.5121V0.953586H42.8732V4.83468C42.8732 4.99679 42.9113 5.13983 42.9971 5.24472C43.0925 5.36869 43.2451 5.44497 43.4263 5.44497H44.7708L45.0569 4.90143H43.5502C43.5502 4.90143 43.5121 4.88236 43.5121 4.86329" fill="white"/>
<path d="M45.7912 3.30894C46.3442 2.98472 47.0499 2.40304 47.3455 1.86903L47.4313 1.71645H46.6589L46.6303 1.76413C46.4491 2.04067 46.1726 2.31721 45.7912 2.59375V0.953586H45.1332V4.83468C45.1332 5.00633 45.1809 5.13983 45.2667 5.24472C45.3716 5.36869 45.5241 5.43544 45.6958 5.43544H47.1643L47.4313 4.89189H45.7816V3.30894H45.7912Z" fill="white"/>
<path d="M48.4231 4.84422V2.97519H49.8439V2.41257H48.4231V0.953586H47.7842V4.83468C47.7842 4.99679 47.8223 5.13983 47.9081 5.24472C48.0035 5.37822 48.1561 5.44497 48.3373 5.44497H49.6818L49.9679 4.90143H48.4612C48.4612 4.90143 48.4231 4.88236 48.4231 4.86329" fill="white"/>
<path d="M50.7022 3.30894C51.2552 2.98472 51.9609 2.40304 52.2565 1.86903L52.3423 1.71645H51.5699L51.5413 1.76413C51.3601 2.04067 51.0836 2.31721 50.7022 2.59375V0.953586H50.0442V4.83468C50.0442 5.00633 50.0919 5.13983 50.1777 5.24472C50.2826 5.36869 50.4352 5.43544 50.6068 5.43544H52.0753L52.3423 4.89189H50.6926V3.30894H50.7022Z" fill="white"/>
<path d="M53.3436 2.87029H56.2711C56.3856 2.87029 56.5 2.82261 56.5858 2.72725C56.6716 2.6319 56.7193 2.51747 56.7193 2.3935V1.50667C56.7193 1.36363 56.6716 1.23966 56.5667 1.1443C56.4714 1.04894 56.3283 1.00126 56.1948 1.00126H53.4294C53.2864 1.00126 53.1624 1.03941 53.0575 1.1157C52.9336 1.22059 52.8668 1.35409 52.8668 1.53527V2.40304C52.8668 2.50793 52.9145 2.61282 53.0003 2.70818C53.0957 2.81308 53.2101 2.87029 53.3341 2.87029M53.5248 1.65924V1.54481L53.5343 1.5162H56.0709V1.65924H53.5153H53.5248ZM56.0804 2.33628H53.5248V2.19325H56.0804V2.32675V2.33628Z" fill="white"/>
<path d="M56.7098 3.23266C56.6144 3.15637 56.4904 3.11823 56.3569 3.11823H55.1936C55.0791 3.11823 54.9647 3.15637 54.8789 3.22312C54.7645 3.30894 54.6977 3.45198 54.6977 3.60455V4.68211H53.3245V3.72852C53.8109 3.67131 54.2209 3.60455 54.6023 3.52827L54.6882 3.5092V2.94658L54.5642 2.97519C54.2495 3.05147 53.8013 3.11823 53.2292 3.17544C53.0766 3.19451 52.9526 3.24219 52.8668 3.31848C52.7619 3.4043 52.7047 3.5378 52.7047 3.69991V4.68211C52.7047 4.83468 52.7619 4.96818 52.8573 5.06354C52.9526 5.1589 53.0861 5.20658 53.2483 5.20658H54.4879L54.7168 4.71071V5.43544H55.3557V4.80607L55.5655 5.20658H56.4237C56.5477 5.20658 56.6716 5.1589 56.7575 5.08261C56.8528 4.99679 56.91 4.88236 56.91 4.74886V3.62363C56.91 3.46152 56.8528 3.32801 56.7384 3.22312M55.3366 4.67257V3.6427L56.2521 3.63316V4.67257H55.3366Z" fill="white"/>
<path d="M56.929 6.3032H42.8159C41.8719 6.3032 41.0995 5.5308 41.0995 4.58675V1.71645C41.0995 0.772404 41.8719 0 42.8159 0H56.929C57.8731 0 58.6455 0.772404 58.6455 1.71645V4.58675C58.6455 5.5308 57.8731 6.3032 56.929 6.3032ZM42.8255 0.219325C42.0054 0.219325 41.3283 0.886835 41.3283 1.71645V4.58675C41.3283 5.40683 41.9959 6.08388 42.8255 6.08388H56.9385C57.7586 6.08388 58.4357 5.41637 58.4357 4.58675V1.71645C58.4357 0.89637 57.7682 0.219325 56.9385 0.219325H42.8255Z" fill="white"/>
<path d="M3.28985 13.0737H2.68909V14.6661C3.02284 14.6661 3.39474 14.6661 3.39474 14.6661C3.79525 14.6661 3.9955 14.3705 4.07179 14.1989C4.20529 13.9128 4.129 13.5886 4.05271 13.4551C3.94782 13.2739 3.61407 13.0737 3.29938 13.0737" fill="white"/>
<path d="M3.22317 10.2034C1.43043 10.2129 -0.00948877 11.6814 4.7091e-05 13.4646C4.7091e-05 14.3324 0.352874 15.1429 0.963169 15.7532C1.57346 16.354 2.38401 16.6878 3.24224 16.6878H3.26131C5.05405 16.6782 6.49397 15.2097 6.48443 13.4265C6.47489 11.6337 5.00637 10.2034 3.22317 10.2034ZM4.62494 14.4468C4.49144 14.7424 4.18629 15.1239 3.48063 15.2669C3.45203 15.2669 3.44249 15.2669 3.11827 15.2669C2.9657 15.2669 2.74637 15.2669 2.43169 15.2669H2.07886V11.443C2.07886 11.443 2.10747 11.3667 2.15515 11.3667H3.31853C3.54739 11.3953 3.95743 11.5575 4.06232 11.9961C4.11954 12.244 4.08139 12.4443 3.93836 12.635C4.25304 12.7685 4.46283 12.9402 4.57726 13.1404C4.7489 13.4456 4.83473 13.9796 4.62494 14.4468Z" fill="white"/>
<path d="M3.42335 12.3966C3.48056 12.3299 3.4901 12.225 3.47103 12.1487C3.43288 11.9961 3.28985 11.9866 3.26124 11.9866H2.68909V12.4634H3.27077C3.33753 12.4634 3.3852 12.4443 3.42335 12.3966Z" fill="white"/>
<path d="M12.0534 5.69291L9.69802 4.55814L4.07186 7.27586C3.81439 7.39982 3.65228 7.65729 3.65228 7.94337V8.9351C3.65228 9.05906 3.55692 9.15442 3.43296 9.15442C3.30899 9.15442 3.21363 9.05906 3.21363 8.9351V7.94337C3.21363 7.49518 3.4711 7.07561 3.88114 6.88489L9.19262 4.31974L6.94215 3.23266C6.81819 3.17544 6.68469 3.14683 6.55118 3.14683C6.41768 3.14683 6.28418 3.17544 6.16021 3.23266L1.03946 5.69291C0.734311 5.84548 0.534058 6.16016 0.534058 6.50345V10.9186C1.2111 10.1938 2.16469 9.73611 3.22317 9.73611C5.26384 9.73611 6.94215 11.3858 6.96123 13.4265C6.96123 14.2847 6.67515 15.0762 6.18882 15.7151C6.42722 15.82 6.70376 15.82 6.94215 15.7056L12.0629 13.2358C12.3681 13.0832 12.5683 12.7685 12.5683 12.4252V6.52253C12.5683 6.17924 12.3681 5.86455 12.0629 5.71198M6.81819 10.0222C6.76097 10.0222 6.70376 10.0031 6.65608 9.95543C6.57026 9.86961 6.57026 9.72657 6.65608 9.64075L7.7527 8.57273C7.81945 8.50598 7.93388 8.48691 8.01971 8.54413L8.92561 9.07814C9.03051 9.13535 9.06865 9.27839 9.0019 9.38328C8.94468 9.48818 8.80164 9.52632 8.69675 9.45957L7.93388 9.01138L6.96123 9.95543C6.96123 9.95543 6.86587 10.0222 6.80865 10.0222M8.19135 11.4907C8.19135 11.6147 8.09599 11.71 7.97203 11.71C7.84806 11.71 7.7527 11.6147 7.7527 11.4907V9.87915C7.7527 9.75518 7.84806 9.65982 7.97203 9.65982C8.09599 9.65982 8.19135 9.75518 8.19135 9.87915V11.4907ZM8.5251 13.8175C8.5251 13.8175 8.46789 13.8365 8.43928 13.8365C8.35346 13.8365 8.26764 13.7888 8.23903 13.703C8.19135 13.5886 8.23903 13.4646 8.363 13.417C10.2702 12.6445 10.6993 12.2631 10.7946 12.1391C10.747 12.0819 10.7374 11.9961 10.766 11.9198C10.8137 11.8054 10.9377 11.7577 11.0521 11.7959C11.157 11.834 11.2619 11.9484 11.2619 12.1105C11.2619 12.4061 10.9377 12.8448 8.53464 13.827M10.6802 10.2034V8.70624C10.6802 8.58227 10.7756 8.48691 10.8995 8.48691C11.0235 8.48691 11.1189 8.58227 11.1189 8.70624V10.2034C11.1189 10.3273 11.0235 10.4227 10.8995 10.4227C10.7756 10.4227 10.6802 10.3273 10.6802 10.2034ZM11.9294 8.31527C11.8722 8.42016 11.7292 8.4583 11.6243 8.39155L10.8614 7.94337L9.88873 8.88742C9.88873 8.88742 9.79337 8.95417 9.73616 8.95417C9.67894 8.95417 9.62173 8.9351 9.57405 8.88742C9.48823 8.8016 9.48823 8.65856 9.57405 8.57273L10.6707 7.50472C10.7374 7.43797 10.8519 7.4189 10.9377 7.47611L11.8436 8.01012C11.9485 8.06733 11.9866 8.21037 11.9199 8.31527" fill="white"/>
</g>
<defs>
<clipPath id="clip0_1468_1946">
<rect width="98" height="16.6877" fill="white"/>
</clipPath>
</defs>
</svg>
