<svg
  xmlns="http://www.w3.org/2000/svg"
  width="282"
  height="50"
  viewBox="0 0 282 50"
  fill="none"
>
  <path
    d="M189.785 26.641H190.709C192.831 26.641 194.644 26.6766 194.229 29.4853C193.826 32.2111 191.871 32.2111 189.88 32.2111H188.955L189.785 26.641ZM181.667 44.3111H187.142L188.244 36.9041H191.349C196.125 36.9041 199.159 34.5932 199.941 29.3194C200.712 24.1878 197.915 21.9717 193.376 21.9717H184.985L181.667 44.3111Z"
    fill="#09469C"
  />
  <path
    d="M222.779 23.0386L221.38 32.3891H221.427C222.601 31.0144 223.869 30.3863 225.516 30.3863C228.514 30.3863 229.652 32.4839 229.178 35.6719L228.029 43.3514H223.833L224.793 36.9163C225.018 35.4467 225.03 33.9298 223.347 33.9298C221.688 33.9298 220.93 35.4467 220.705 36.9163L219.745 43.3514H215.537L218.571 23.0386H222.779Z"
    fill="#2986C8"
  />
  <path
    d="M237.96 34.2497C239.666 34.2497 240.46 35.5415 240.235 37.0821C239.998 38.6702 238.825 39.9027 237.118 39.9027C235.412 39.9027 234.606 38.682 234.843 37.0821C235.068 35.5415 236.253 34.2497 237.96 34.2497ZM238.541 30.3862C234.736 30.3862 231.051 32.8039 230.411 37.094C229.771 41.3722 232.757 43.778 236.55 43.778C240.366 43.778 244.04 41.3604 244.68 37.094C245.308 32.8039 242.345 30.3862 238.541 30.3862Z"
    fill="#2986C8"
  />
  <path
    d="M251.008 32.3654H251.055C252.252 30.9669 253.568 30.3862 255.097 30.3862C256.803 30.3862 258.178 31.121 258.782 32.7802C259.825 31.2158 261.544 30.3862 263.155 30.3862C266.154 30.3862 266.888 32.4602 266.45 35.3519L265.253 43.3514H261.046L261.946 37.3547C262.136 36.0511 262.503 33.9297 260.726 33.9297C258.782 33.9297 258.427 35.8615 258.202 37.3547L257.301 43.3514H253.094L253.994 37.3547C254.208 35.9563 254.528 33.8349 252.655 33.8349C250.783 33.8349 250.463 35.9681 250.261 37.3547L249.372 43.3514H245.165L247.038 30.801H251.245L251.008 32.3654Z"
    fill="#2986C8"
  />
  <path
    d="M272.139 35.2453C272.589 33.9417 273.703 33.2662 274.924 33.2662C276.061 33.2662 276.974 34.0484 277.009 35.2453H272.139ZM280.6 37.3548C281.24 33.0647 279.261 30.3745 275.161 30.3745C271.309 30.3745 268.228 32.8988 267.6 37.0823C266.948 41.4198 269.531 43.7663 273.454 43.7663C276.156 43.7663 279.012 42.4153 280.126 39.4643H276.085C275.504 40.2939 274.805 40.6139 273.904 40.6139C272.174 40.6139 271.416 39.6303 271.688 37.8289H280.529L280.6 37.3548Z"
    fill="#2986C8"
  />
  <path
    d="M245.9 22.8725C246.73 22.8725 247.192 23.6547 247.085 24.4368C246.979 25.1598 246.232 26.096 245.426 26.096C244.632 26.096 244.146 25.1716 244.265 24.4368C244.371 23.6665 245.071 22.8725 245.9 22.8725ZM245.284 27.0204C246.682 27.0204 247.832 25.859 248.045 24.4843C248.247 23.1332 247.441 21.96 246.03 21.96C244.62 21.96 243.471 23.1451 243.281 24.4843C243.08 25.859 243.885 27.0204 245.284 27.0204Z"
    fill="#696A6A"
  />
  <path
    d="M252.063 21.9482H252.738L254.777 25.314H254.788L255.262 22.0786H256.199L255.476 26.985H254.8L252.762 23.6192H252.75L252.264 26.8902H251.328L252.063 21.9482Z"
    fill="#696A6A"
  />
  <path
    d="M260.441 26.0724H261.769L261.65 26.8902H259.387L260.098 22.0786H261.034L260.441 26.0724Z"
    fill="#696A6A"
  />
  <path
    d="M266.071 26.8902H265.135L265.846 22.0786H266.782L266.071 26.8902Z"
    fill="#696A6A"
  />
  <path
    d="M270.681 21.9482H271.356L273.395 25.314H273.407L273.881 22.0786H274.817L274.094 26.985H273.418L271.38 23.6192H271.368L270.882 26.8902H269.946L270.681 21.9482Z"
    fill="#696A6A"
  />
  <path
    d="M279.51 22.8963L279.356 23.9511H280.849L280.731 24.7688H279.237L279.048 26.0724H280.6L280.482 26.8902H277.993L278.704 22.0786H281.193L281.074 22.8963H279.51Z"
    fill="#696A6A"
  />
  <path
    d="M216.059 29.6277L217.054 23.003C215.952 22.4815 214.826 22.1378 213.618 21.9956L212.8 27.376C214.175 27.6249 215.383 28.3834 216.059 29.6277Z"
    fill="#2986C8"
  />
  <path
    d="M215.004 36.7026C213.926 37.8522 212.492 38.6344 211.058 38.8714L210.24 44.2637C211.449 44.1333 212.575 43.7778 214.009 43.3274L215.004 36.7026Z"
    fill="#2986C8"
  />
  <path
    d="M210.24 44.2639L211.058 38.8716C210.761 38.919 210.465 38.9545 210.169 38.9545C206.922 38.9545 205.097 36.5369 205.606 33.1712C206.104 29.8766 208.64 27.2693 211.84 27.2693C212.172 27.2693 212.492 27.3049 212.8 27.3641L213.618 21.9837C213.238 21.9363 212.847 21.9126 212.456 21.9126C209.636 21.9126 206.59 23.2162 204.303 25.3494C202.075 27.4352 200.617 30.2321 200.19 33.1356C199.716 36.2999 200.321 39.0612 202.205 41.1826C203.983 43.1854 206.471 44.3113 209.268 44.3113C209.6 44.3231 209.92 44.2994 210.24 44.2639Z"
    fill="#09469C"
  />
  <path
    d="M122.387 41.0641C123.442 42.107 124.674 42.9484 126.061 43.5528C127.459 44.1572 128.988 44.3943 130.6 44.4654C133.195 44.572 135.554 42.7588 136.762 41.467L136.786 44.892H142.273V32.8394C142.273 31.2514 141.965 29.7344 141.361 28.3241C140.756 26.9138 139.915 25.6576 138.848 24.591C137.782 23.5244 136.525 22.683 135.115 22.0786C133.705 21.4742 132.188 21.166 130.6 21.166C128.988 21.166 127.459 21.4742 126.061 22.0786C124.674 22.683 123.43 23.5244 122.375 24.591C121.332 25.6576 120.491 26.9138 119.886 28.3241C119.282 29.7344 118.974 31.2514 118.974 32.8394C118.974 34.4512 119.282 35.98 119.886 37.3784C120.503 38.7768 121.344 40.0093 122.387 41.0641ZM124.473 32.8394C124.473 31.998 124.639 31.1802 124.947 30.4218C125.267 29.6633 125.705 28.9996 126.262 28.4426C126.819 27.8856 127.483 27.4353 128.218 27.1272C129.699 26.499 131.512 26.499 133.017 27.1272C133.776 27.4471 134.44 27.8856 134.997 28.4426C135.554 28.9996 135.992 29.6633 136.312 30.4218C136.632 31.1802 136.786 31.9861 136.786 32.8276C136.786 36.217 134.037 38.9664 130.6 38.9664C129.758 38.9664 128.953 38.8005 128.218 38.4924C127.483 38.1724 126.819 37.7339 126.262 37.1769C125.705 36.6199 125.255 35.9563 124.947 35.2215C124.639 34.4867 124.473 33.6808 124.473 32.8394Z"
    fill="#1F2C5E"
  />
  <path
    d="M101.897 24.7216C100.83 23.655 99.5737 22.8017 98.1634 22.1973C96.7413 21.581 95.1888 21.2729 93.5533 21.2729C90.1994 21.2729 88.2914 22.1854 87.2722 22.9558V12.2305H81.7021V33.0885C81.7021 34.7003 82.0103 36.2409 82.6265 37.6749C83.2309 39.1089 84.0961 40.377 85.1864 41.4673C86.2648 42.5576 87.5448 43.4108 88.9788 44.0271C90.4127 44.6434 91.9534 44.9515 93.5652 44.9515C95.2125 44.9515 96.765 44.6434 98.1752 44.0271C99.5855 43.4108 100.854 42.5576 101.92 41.4673C102.987 40.3888 103.84 39.1089 104.445 37.6749C105.061 36.2409 105.369 34.7003 105.369 33.0885C105.369 31.4412 105.061 29.8887 104.445 28.4784C103.816 27.0444 102.963 25.7882 101.897 24.7216ZM99.787 33.0766C99.787 33.9418 99.6211 34.7595 99.3011 35.5298C98.9811 36.3002 98.5308 36.9757 97.9619 37.5445C97.3931 38.1134 96.7294 38.5637 95.9709 38.8837C94.4658 39.5237 92.6289 39.5237 91.1001 38.8837C90.3298 38.5637 89.6543 38.1134 89.0854 37.5445C88.5166 36.9757 88.0662 36.3002 87.7462 35.5298C87.4263 34.7595 87.2603 33.9418 87.2603 33.0766C87.2603 29.6398 90.0572 26.8429 93.5414 26.8429C94.3947 26.8429 95.2125 27.0089 95.9591 27.3288C96.7057 27.6488 97.3812 28.0992 97.9501 28.668C98.5189 29.2369 98.9693 29.9005 99.2893 30.659C99.6211 31.4056 99.787 32.2234 99.787 33.0766Z"
    fill="#1F2C5E"
  />
  <path
    d="M65.1223 24.7216C64.0557 23.655 62.7995 22.8017 61.3892 22.1973C59.9671 21.581 58.4146 21.2729 56.7791 21.2729C53.4253 21.2729 51.5172 22.1854 50.498 22.9558V12.2305H44.928V33.0885C44.928 34.7003 45.2361 36.2409 45.8524 37.6749C46.4568 39.1089 47.3219 40.377 48.4122 41.4673C49.4907 42.5576 50.7706 43.4108 52.2046 44.0271C53.6386 44.6434 55.1792 44.9515 56.791 44.9515C58.4383 44.9515 59.9908 44.6434 61.4011 44.0271C62.8114 43.4108 64.0794 42.5576 65.146 41.4673C66.2126 40.3888 67.0659 39.1089 67.6703 37.6749C68.2866 36.2409 68.5947 34.7003 68.5947 33.0885C68.5947 31.4412 68.2866 29.8887 67.6703 28.4784C67.0422 27.0444 66.1889 25.7882 65.1223 24.7216ZM63.0128 33.0766C63.0128 33.9418 62.8469 34.7595 62.5269 35.5298C62.2069 36.3002 61.7566 36.9757 61.1877 37.5445C60.6189 38.1134 59.9552 38.5637 59.1968 38.8837C57.6917 39.5237 55.8547 39.5237 54.3259 38.8837C53.5556 38.5637 52.8801 38.1134 52.3112 37.5445C51.7424 36.9757 51.292 36.3002 50.9721 35.5298C50.6521 34.7595 50.4862 33.9418 50.4862 33.0766C50.4862 29.6398 53.283 26.8429 56.7673 26.8429C57.6206 26.8429 58.4383 27.0089 59.1849 27.3288C59.9315 27.6488 60.607 28.0992 61.1759 28.668C61.7448 29.2369 62.1951 29.9005 62.5151 30.659C62.8469 31.4056 63.0128 32.2234 63.0128 33.0766Z"
    fill="#1F2C5E"
  />
  <path d="M78.123 29.5806H72.6003V44.833H78.123V29.5806Z" fill="#1F2C5E" />
  <path d="M78.123 21.7114H72.6003V27.3881H78.123V21.7114Z" fill="#FAC03D" />
  <path d="M114.767 29.5806H109.244V44.833H114.767V29.5806Z" fill="#1F2C5E" />
  <path d="M114.767 21.7114H109.244V27.3881H114.767V21.7114Z" fill="#FAC03D" />
  <path
    d="M168.31 28.4192C167.694 27.0089 166.841 25.7409 165.75 24.6743C164.672 23.6077 163.404 22.7662 161.994 22.15C160.572 21.5337 159.019 21.2256 157.384 21.2256C155.772 21.2256 154.231 21.5337 152.797 22.15C151.363 22.7662 150.095 23.6077 149.029 24.6743C147.962 25.7409 147.109 26.9971 146.504 28.4074C145.888 29.8295 145.58 31.382 145.58 33.0175V44.8805H151.15V33.0293C151.15 32.176 151.316 31.3583 151.636 30.6117C151.956 29.8532 152.406 29.1896 152.975 28.6207C153.544 28.0518 154.207 27.6015 154.966 27.2815C156.459 26.6416 158.308 26.6416 159.837 27.2815C160.607 27.6015 161.283 28.0518 161.851 28.6207C162.42 29.1896 162.871 29.8532 163.191 30.6117C163.511 31.3583 163.677 32.176 163.677 33.0293V44.8923H169.247V33.0293C169.235 31.3939 168.927 29.8414 168.31 28.4192Z"
    fill="#1F2C5E"
  />
  <path
    d="M126.985 14.1383V8.6868H131.133V7.05135H126.985V2.76123H125.125V14.0909C125.125 14.565 125.243 14.9679 125.48 15.276C125.765 15.6434 126.215 15.8568 126.748 15.8568H130.659L131.512 14.2568H127.104C127.021 14.2687 126.985 14.2213 126.985 14.1383Z"
    fill="#1F2C5E"
  />
  <path
    d="M133.634 9.6349C135.246 8.68681 137.308 7.00394 138.173 5.42774L138.422 4.9774H136.182L136.087 5.11961C135.565 5.93734 134.748 6.74321 133.634 7.53724V2.76123H131.726V14.0791C131.726 14.565 131.856 14.9798 132.129 15.2879C132.425 15.6434 132.887 15.8568 133.385 15.8568H137.663L138.445 14.2568L133.634 14.2213V9.6349Z"
    fill="#1F2C5E"
  />
  <path
    d="M141.325 14.1383V8.6868H145.473V7.05135H141.325V2.76123H139.465V14.0909C139.465 14.565 139.583 14.9679 139.82 15.276C140.116 15.6553 140.543 15.8568 141.088 15.8568H144.999L145.852 14.2568H141.444C141.361 14.2687 141.325 14.2213 141.325 14.1383Z"
    fill="#1F2C5E"
  />
  <path
    d="M147.974 9.6349C149.585 8.68681 151.648 7.00394 152.513 5.42774L152.762 4.9774H150.522L150.427 5.11961C149.905 5.92548 149.088 6.74321 147.974 7.53724V2.76123H146.066V14.0791C146.066 14.565 146.196 14.9798 146.469 15.2879C146.765 15.6434 147.227 15.8568 147.725 15.8568H152.003L152.785 14.2568L147.974 14.2213V9.6349Z"
    fill="#1F2C5E"
  />
  <path
    d="M155.677 8.36684H164.222C164.553 8.36684 164.873 8.22462 165.146 7.95205C165.407 7.67947 165.549 7.33578 165.549 6.9921V4.3967C165.549 3.98191 165.395 3.62638 165.099 3.3301L165.087 3.31824C164.802 3.04567 164.399 2.8916 164.008 2.8916H155.938C155.523 2.8916 155.156 3.01011 154.859 3.23529C154.492 3.53156 154.302 3.9345 154.302 4.45595V6.9921C154.302 7.28838 154.433 7.60836 154.681 7.89279C154.954 8.20092 155.31 8.36684 155.677 8.36684ZM156.198 4.84704V4.52706C156.198 4.4915 156.222 4.45595 156.246 4.4441L163.653 4.46781V4.84704H156.198ZM163.665 6.81433L156.198 6.80248V6.41139H163.641V6.79063L163.665 6.81433Z"
    fill="#1F2C5E"
  />
  <path
    d="M165.513 9.42151C165.241 9.19634 164.885 9.07782 164.494 9.07782H161.093C160.749 9.07782 160.429 9.18449 160.18 9.38596C159.837 9.64668 159.647 10.0496 159.647 10.4881V13.6168H155.641V10.8318C157.075 10.6659 158.261 10.4763 159.363 10.2629L159.612 10.2155V8.58008L159.232 8.67488C158.308 8.90005 156.992 9.08968 155.333 9.25559C154.871 9.31485 154.527 9.44521 154.279 9.65853C153.959 9.91925 153.793 10.2985 153.793 10.7725V13.6287C153.793 14.0672 153.947 14.4582 154.243 14.7427C154.527 15.0271 154.918 15.1693 155.381 15.1693H158.983L159.647 13.7353V15.8448H161.496V14.0079L162.112 15.193H164.601C164.968 15.193 165.324 15.0627 165.573 14.8256C165.857 14.5768 166.023 14.2331 166.023 13.8538V10.5829C166.023 10.1207 165.845 9.71779 165.513 9.42151ZM161.484 13.6287L161.472 10.6185L164.162 10.5829L164.186 13.6168H161.484V13.6287Z"
    fill="#1F2C5E"
  />
  <path
    d="M166.153 18.3811H124.983C122.221 18.3811 119.981 16.1413 119.981 13.3799V5.00119C119.981 2.23987 122.221 0 124.983 0H166.153C168.915 0 171.155 2.23987 171.155 5.00119V13.3799C171.155 16.1294 168.915 18.3811 166.153 18.3811ZM124.983 0.639963C122.577 0.639963 120.621 2.5954 120.621 5.00119V13.3799C120.621 15.7857 122.577 17.7412 124.983 17.7412H166.153C168.559 17.7412 170.515 15.7857 170.515 13.3799V5.00119C170.515 2.5954 168.559 0.639963 166.153 0.639963H124.983Z"
    fill="#1F2C5E"
  />
  <path
    d="M35.1863 17.919L28.3126 14.6007L11.8869 22.5291C11.1522 22.8846 10.6663 23.6549 10.6663 24.4727V27.3525C10.6663 27.708 10.3818 27.9925 10.0263 27.9925C9.67077 27.9925 9.38634 27.708 9.38634 27.3525V24.4727C9.38634 23.1572 10.1567 21.9365 11.3299 21.3677L26.8431 13.8778L20.2657 10.7016C19.8983 10.5239 19.5191 10.4409 19.128 10.4409C18.7369 10.4409 18.3458 10.5239 17.9903 10.7016L3.05783 17.9071C2.14529 18.3575 1.55273 19.2819 1.55273 20.2892V37.5208C1.55273 38.5163 2.13344 39.4525 3.03413 39.8792L17.9666 47.0847C18.6895 47.4284 19.5191 47.4284 20.242 47.0847L35.1744 39.8792C36.0751 39.4407 36.6558 38.5163 36.6558 37.5208V20.2892C36.6677 19.2819 36.087 18.3575 35.1863 17.919Z"
    fill="#FAC03D"
  />
  <path
    d="M35.7433 16.7577L20.8109 9.55222C19.7324 9.03077 18.4881 9.03077 17.4096 9.55222L2.47715 16.7577C1.13797 17.4095 0.260986 18.7843 0.260986 20.2775V37.5091C0.260986 39.0023 1.12612 40.3771 2.47715 41.0289L17.4096 48.2344C17.9548 48.4951 18.5236 48.6255 19.1043 48.6255C19.685 48.6255 20.2657 48.4951 20.799 48.2344L35.7315 41.0289C37.0707 40.3771 37.9476 39.0023 37.9476 37.5091V20.2894C37.9476 18.7961 37.0825 17.4095 35.7433 16.7577ZM36.6677 37.5209C36.6677 38.5164 36.087 39.4527 35.1863 39.8793L20.2539 47.0848C19.531 47.4285 18.7014 47.4285 17.9785 47.0848L3.04601 39.8793C2.14532 39.4408 1.56461 38.5164 1.56461 37.5209V20.2894C1.56461 19.2939 2.14532 18.3576 3.04601 17.931L17.9785 10.7255C18.3458 10.5477 18.7251 10.4648 19.1162 10.4648C19.5073 10.4648 19.8983 10.5477 20.2539 10.7255L26.8313 13.9016L11.3181 21.3797C10.133 21.9485 9.37452 23.1692 9.37452 24.4847V28.5852C9.37452 28.9407 9.65895 29.2251 10.0145 29.2251C10.37 29.2251 10.6544 28.9407 10.6544 28.5852V24.4847C10.6544 23.6669 11.1285 22.8966 11.8751 22.5411L28.3008 14.6127L35.1745 17.931C36.0752 18.3695 36.6559 19.2939 36.6559 20.2894V37.5209H36.6677Z"
    fill="#1F2C5E"
  />
  <path
    d="M9.46929 50C6.9687 50 4.61032 49.0283 2.8208 47.2743C1.01942 45.4966 0.0239254 43.1264 0.000223066 40.6021C-0.0353304 35.3876 4.18368 31.1093 9.39818 31.0738C14.6008 31.0619 18.891 35.2572 18.9265 40.4717C18.9621 45.6862 14.7431 49.9645 9.52855 50C9.5167 50 9.49299 50 9.46929 50Z"
    fill="#BB1B21"
  />
  <path
    d="M13.3803 39.6658C13.0484 39.0732 12.4203 38.5755 11.5196 38.1844C11.9463 37.6392 12.0529 37.0585 11.8752 36.3237C11.567 35.0438 10.3582 34.5698 9.69456 34.4868H6.29328C6.17477 34.4868 6.07996 34.5816 6.07996 34.7001V45.8639H7.09916C8.0354 45.8639 8.67536 45.8758 9.11385 45.8758C10.0501 45.8758 10.1093 45.8639 10.1805 45.8521C12.2307 45.4373 13.1195 44.3233 13.5225 43.47C14.1387 42.1071 13.878 40.5427 13.3803 39.6658ZM9.99084 37.4614C9.88418 37.5918 9.74196 37.6629 9.55234 37.6629H7.85763V36.2763H9.51679C9.59975 36.2763 10.0145 36.3 10.133 36.7504C10.1805 36.9519 10.1449 37.26 9.99084 37.4614ZM7.85763 39.4406H9.6116C10.5478 39.4406 11.5196 40.0213 11.8278 40.5428C12.0529 40.9457 12.2663 41.8938 11.887 42.7234C11.65 43.233 11.093 44.0862 9.90788 44.0862C9.90788 44.0862 8.82942 44.0862 7.85763 44.0862V39.4406Z"
    fill="white"
  />
  <path
    d="M19.9102 30.5404C19.7443 30.5404 19.5784 30.4693 19.448 30.3508C19.1992 30.0901 19.211 29.6871 19.4599 29.4383L22.6597 26.3333C22.873 26.1318 23.1812 26.0962 23.43 26.2384L26.0728 27.7909C26.381 27.9687 26.4876 28.3598 26.298 28.6679C26.1202 28.9761 25.7173 29.0709 25.421 28.8931L23.2049 27.5895L20.3606 30.3508C20.2302 30.4812 20.0762 30.5404 19.9102 30.5404Z"
    fill="#1C2B5B"
  />
  <path
    d="M28.4311 27.4354C28.2652 27.4354 28.0993 27.3643 27.9689 27.2458C27.72 26.9851 27.7319 26.5821 27.9808 26.3333L31.1806 23.2283C31.3939 23.0268 31.702 22.9913 31.9509 23.1335L34.5937 24.686C34.9018 24.8637 35.0085 25.2548 34.8189 25.5629C34.6411 25.8711 34.2382 25.9777 33.9419 25.7881L31.7257 24.4845L28.8815 27.2458C28.7511 27.3762 28.597 27.4354 28.4311 27.4354Z"
    fill="#1C2B5B"
  />
  <path
    d="M24.6506 41.6806C24.4017 41.6806 24.1528 41.5265 24.058 41.2777C23.9277 40.9458 24.0817 40.5666 24.4136 40.4362C29.9718 38.1727 31.228 37.0587 31.5005 36.6913C31.3583 36.5135 31.3228 36.2646 31.4176 36.0394C31.548 35.7195 31.9153 35.5654 32.2472 35.6958C32.5553 35.8143 32.8634 36.1461 32.8634 36.6083C32.8634 37.4853 31.9272 38.7652 24.8995 41.6332C24.8165 41.6569 24.7335 41.6806 24.6506 41.6806Z"
    fill="#1C2B5B"
  />
  <path
    d="M23.2758 35.4588C22.9203 35.4588 22.6359 35.1744 22.6359 34.8189V30.1258C22.6359 29.7703 22.9203 29.4858 23.2758 29.4858C23.6314 29.4858 23.9158 29.7703 23.9158 30.1258V34.8189C23.9158 35.1744 23.6314 35.4588 23.2758 35.4588Z"
    fill="#1C2B5B"
  />
  <path
    d="M31.8088 31.714C31.4532 31.714 31.1688 31.4296 31.1688 31.0741V26.701C31.1688 26.3455 31.4532 26.061 31.8088 26.061C32.1643 26.061 32.4487 26.3455 32.4487 26.701V31.0741C32.4606 31.4177 32.1643 31.714 31.8088 31.714Z"
    fill="#1C2B5B"
  />
  <path d="M176.926 21.1782H175.895V44.0983H176.926V21.1782Z" fill="#C4C4C4" />
</svg>
