<svg width="93" height="23" viewBox="0 0 93 23" fill="none" xmlns="http://www.w3.org/2000/svg">
<path d="M9.66581 6.63667C9.38455 8.89696 9.08796 10.7379 8.78113 12.1544C8.4743 13.5761 8.0652 14.8187 7.5436 15.8824L9.00102 17.0841L10.8113 18.5671L9.51752 20.1217C8.48453 19.1961 7.48734 18.3472 6.53106 17.5802C6.02991 18.3012 5.41626 19.012 4.69522 19.7126C3.97417 20.4081 3.07926 21.1751 2.01048 22.0087L0.691124 20.5513C1.70877 19.7842 2.56788 19.0632 3.25824 18.3984C3.94861 17.7336 4.53669 17.0432 5.0225 16.3375C3.83099 15.3506 2.76221 14.5119 1.82127 13.8215C2.41959 11.6431 2.91051 9.28049 3.30427 6.73894H1.06955V4.8315H3.58553C3.79008 3.32294 3.9486 1.88085 4.05599 0.50013L5.93787 0.643315C5.79468 2.10074 5.62592 3.49681 5.42137 4.8315H9.65558V6.64178L9.66581 6.63667ZM4.25543 13.2744L5.99923 14.6397C6.45436 13.6988 6.82767 12.5993 7.11915 11.3465C7.41064 10.0936 7.67144 8.55434 7.90667 6.73383H5.15546C4.70033 9.36743 4.27077 11.4487 3.86167 12.9726L4.26055 13.2795L4.25543 13.2744ZM22.4247 10.4055V12.2874H17.0092V18.8995C17.0092 19.953 16.8047 20.6893 16.3956 21.1138C15.9864 21.5382 15.2756 21.7479 14.2529 21.7479C13.3119 21.7479 12.4937 21.707 11.8034 21.6303L11.4045 19.7228C12.2022 19.866 13.0102 19.9325 13.8284 19.9325C14.1915 19.9325 14.4574 19.8916 14.6262 19.8047C14.8 19.7177 14.9228 19.5592 14.9893 19.324C15.0557 19.0887 15.0966 18.7256 15.0966 18.2398V12.2874H10.1567V10.4055H15.0966V7.62874L19.0496 3.93148H10.9085V2.1212H21.5451V3.91102L17.0041 8.33444V10.4055H22.4196H22.4247Z" fill="#11A196"/>
<path d="M32.1613 12.8039L29.8295 13.7193V22.0291H28.1112V14.425L24.6032 15.8364L24.1071 13.9749C24.9049 13.709 26.2396 13.213 28.1061 12.4919V7.10202H26.4135C26.2396 8.61058 26.0197 9.98108 25.7538 11.2186L24.0355 10.8402C24.7106 7.97136 25.0941 5.18435 25.1861 2.48427L26.8328 2.60189C26.7868 3.45078 26.7152 4.33546 26.6231 5.26106H28.1317V0.53081H29.8243V5.26106H32.0591V7.09691H29.8243V11.8272L32.1051 10.9578L32.1511 12.7937L32.1613 12.8039ZM45.0327 4.25876C45.0481 6.20199 44.9918 8.65661 44.8589 11.6124C44.7259 14.5681 44.5674 16.8387 44.3782 18.4239C44.235 19.5541 43.9333 20.3569 43.473 20.8376C43.0128 21.3183 42.3173 21.5689 41.3917 21.6047C41.1872 21.62 40.9059 21.6303 40.5428 21.6303C40.103 21.6303 39.5252 21.5996 38.799 21.5382L38.4001 19.7279C39.2337 19.8047 40.0775 19.8456 40.9417 19.8456C41.3355 19.8456 41.6372 19.7791 41.8571 19.6461C42.077 19.5132 42.2406 19.2882 42.3531 18.9762C42.4605 18.6643 42.5577 18.2092 42.6344 17.6108C42.8082 16.1841 42.9463 14.471 43.0588 12.4664C43.1662 10.4669 43.2225 8.60547 43.2225 6.87701V6.02812H41.765C41.4019 8.50831 40.9877 10.5794 40.5173 12.2414C40.0468 13.9033 39.3462 15.4784 38.4104 16.9614C37.4746 18.4444 36.1961 19.9223 34.5648 21.395L33.1739 19.9376C34.6978 18.7154 35.9097 17.4165 36.8098 16.0409C37.7098 14.6704 38.4053 13.2028 38.8911 11.6533C39.3769 10.0987 39.8013 8.22705 40.1593 6.02812H38.2979C37.9706 7.6901 37.5871 9.13219 37.1575 10.3595C36.7279 11.5817 36.145 12.7527 35.4137 13.8676C34.6824 14.9824 33.7364 16.0972 32.5756 17.212L31.2562 15.8926C32.7954 14.5272 33.9665 13.08 34.7745 11.551C35.5825 10.022 36.1961 8.18103 36.6206 6.03324H34.9944C34.4319 7.24009 33.7568 8.44183 32.9693 9.63334L31.5784 8.57479C32.3148 7.55715 33.0153 6.30938 33.675 4.8315C34.3347 3.35873 34.8768 1.84505 35.3012 0.290462L37.0194 0.735361C36.641 2.02403 36.237 3.2002 35.7972 4.26387H45.0225L45.0327 4.25876Z" fill="#11A196"/>
<path d="M69.0879 4.59115H63.698C63.4781 5.18947 63.1099 6.07415 62.5935 7.25032H67.5589V19.0887C67.5589 19.8711 67.4618 20.4592 67.2674 20.853C67.0731 21.2467 66.751 21.5127 66.3163 21.6507C65.8765 21.7939 65.2424 21.8604 64.4088 21.8604C63.7798 21.8604 63.1713 21.8348 62.573 21.7888L62.2201 20.0961C62.9258 20.1882 63.7287 20.2393 64.6185 20.2393C65.043 20.2393 65.3447 20.1115 65.5236 19.8609C65.7026 19.6103 65.7947 19.1859 65.7947 18.5876V8.86627H51.4607V21.8553H49.7169V7.24009H54.4728C54.0023 5.95142 53.675 5.06674 53.4858 4.58093H48.1214V2.8627H57.7251C57.316 1.95244 57.0041 1.30811 56.7842 0.9348L58.6916 0.464333C58.9729 0.996166 59.3564 1.79903 59.8422 2.8627H69.0931V4.58093L69.0879 4.59115ZM57.5104 10.4976C56.5387 11.5306 54.9995 12.8908 52.8977 14.5681L51.8392 13.2283C52.6062 12.6812 53.4142 12.0419 54.2529 11.3107C55.0915 10.5794 55.7768 9.93505 56.3137 9.36742L57.5155 10.4976H57.5104ZM54.2887 13.4636H62.9258V19.324H54.2887V13.4636ZM60.5479 7.25032C60.911 6.52928 61.2946 5.64459 61.6985 4.59115H55.3932C55.9097 5.92585 56.2421 6.81053 56.3802 7.25032H60.5479ZM55.9353 17.6518H61.2792V15.0846H55.9353V17.6518ZM64.2657 14.5937C63.9997 14.3125 63.3298 13.6937 62.2662 12.7476C61.1974 11.7965 60.3843 11.0805 59.8167 10.5947L61.0184 9.39299C61.2997 9.61289 62.0463 10.247 63.2531 11.3004C64.46 12.3539 65.181 12.9931 65.4163 13.2283L64.2605 14.5937H64.2657Z" fill="#040000"/>
<path d="M77.1831 16.7568C76.5541 17.0074 75.6438 17.3552 74.4421 17.7898C73.2404 18.2296 72.2125 18.5876 71.3483 18.8739L71.0414 16.9665L72.9233 16.3784C73.0665 16.3171 73.2915 16.2352 73.6034 16.1432V8.37535H71.3892V6.58553H73.6034V0.86832H75.3677V6.58553H77.3467V8.37535H75.3677V15.5295C76.1041 15.2943 76.7075 15.0846 77.178 14.8954V16.7568H77.1831ZM93 16.3324C92.9233 17.212 92.8057 18.0506 92.6472 18.8484C92.4426 19.9939 92.1562 20.7763 91.788 21.2007C91.4199 21.6252 90.9852 21.8348 90.484 21.8348C90.0136 21.8348 89.5686 21.6558 89.1544 21.2928C88.7402 20.9297 88.326 20.3109 87.9169 19.4313C87.6356 18.7717 87.4362 18.2807 87.3288 17.9483C86.2754 19.3444 84.9969 20.6689 83.4935 21.9269L82.2253 20.6791C84.0458 19.237 85.5441 17.6262 86.7203 15.8568C86.0146 13.1414 85.5032 9.86346 85.1913 6.0179H80.2974V9.31117H84.414C84.4293 10.2214 84.4037 11.551 84.3321 13.2999C84.2605 15.0488 84.1941 16.1585 84.1327 16.629C84.0407 17.4114 83.8105 17.9637 83.4526 18.2756C83.0895 18.5876 82.4656 18.7461 81.5707 18.7461C81.3048 18.7461 80.9059 18.7154 80.369 18.6541L80.0161 16.9358C80.5019 17.0279 80.998 17.079 81.4991 17.079C81.8622 17.079 82.1128 16.9818 82.2662 16.7824C82.4145 16.5881 82.5116 16.2455 82.5577 15.7597C82.6037 15.1971 82.6497 14.4147 82.7008 13.4175C82.7469 12.4204 82.7724 11.6021 82.7724 10.9578H80.3025C80.3025 12.7016 80.2104 14.1693 80.0212 15.371C79.832 16.5727 79.5098 17.6927 79.0547 18.7359C78.5996 19.7791 77.9399 20.9348 77.0757 22.2081L75.4495 21.3132C76.2831 20.1217 76.9069 19.0376 77.3212 18.066C77.7354 17.0943 78.0217 16.0256 78.1803 14.8647C78.3388 13.7039 78.4155 12.1902 78.4155 10.3237V4.34569H85.0532C84.8793 2.07006 84.7924 0.801841 84.7924 0.53081H86.6998C86.6998 0.750703 86.7203 1.20072 86.7561 1.88596C86.797 2.5661 86.8481 3.38941 86.9095 4.34569H92.4631V6.0179H87.0015C87.2214 8.98389 87.5436 11.5254 87.968 13.6425C88.7811 11.9806 89.4919 10.0578 90.0851 7.8742L91.6858 8.37024C90.7908 11.5101 89.7579 14.0721 88.5817 16.0665C88.8169 16.8642 89.0777 17.6057 89.359 18.2807C89.5635 18.7819 89.7374 19.145 89.8908 19.3649C90.0391 19.5848 90.2028 19.6922 90.3715 19.6922C90.5607 19.6922 90.7141 19.5694 90.842 19.3291C90.9647 19.0836 91.0772 18.6285 91.1693 17.9535C91.2613 17.2478 91.3431 16.5472 91.4045 15.8568L93.0051 16.3273L93 16.3324ZM90.1976 4.11557C89.2567 3.01611 88.4538 2.13654 87.7993 1.48197L88.955 0.44899C89.4255 0.873434 90.2488 1.73766 91.425 3.03656L90.2028 4.12069L90.1976 4.11557Z" fill="#040000"/>
</svg>
