<?xml version="1.0" encoding="UTF-8"?>
<svg id="_圖層_1" data-name="圖層 1" xmlns="http://www.w3.org/2000/svg" viewBox="0 0 60 60">
  <defs>
    <style>
      .cls-1 {
        fill: #fff;
      }

      .cls-2 {
        fill: #b81c21;
      }

      .cls-3 {
        fill: #ffc65a;
      }

      .cls-4 {
        fill: none;
        stroke: #192b57;
        stroke-linecap: round;
        stroke-linejoin: round;
        stroke-width: 3.13px;
      }
    </style>
  </defs>
  <path class="cls-3" d="m24.38,47.95c.34-.23.75-.35,1.16-.35h23.38c.55,0,1.08-.22,1.48-.61l3.82-3.82c.39-.39.61-.92.61-1.48V15.91c0-.55-.22-1.08-.61-1.48l-3.82-3.82c-.39-.39-.92-.61-1.47-.61H8.47c-.55,0-1.08.22-1.47.61l-3.82,3.82c-.39.39-.61.92-.61,1.48v25.78c0,.55.22,1.08.61,1.47l3.82,3.82c.39.39.92.61,1.47.61h6.63v6.54l9.28-6.19Z"/>
  <path class="cls-4" d="m24.38,47.95c.34-.23.75-.35,1.16-.35h23.38c.55,0,1.08-.22,1.48-.61l3.82-3.82c.39-.39.61-.92.61-1.48V15.91c0-.55-.22-1.08-.61-1.48l-3.82-3.82c-.39-.39-.92-.61-1.47-.61H8.47c-.55,0-1.08.22-1.47.61l-3.82,3.82c-.39.39-.61.92-.61,1.48v25.78c0,.55.22,1.08.61,1.47l3.82,3.82c.39.39.92.61,1.47.61h6.63v6.54l9.28-6.19Z"/>
  <g>
    <line class="cls-4" x1="12.3" y1="23.84" x2="12.3" y2="31"/>
    <line class="cls-4" x1="21.36" y1="23.84" x2="21.36" y2="31"/>
  </g>
  <g>
    <path class="cls-2" d="m45.98,54.73c-3.44,0-6.69-1.33-9.14-3.75-2.48-2.44-3.85-5.7-3.88-9.18h0c-.05-7.18,5.75-13.06,12.93-13.11,7.16-.02,13.06,5.75,13.11,12.93.05,7.18-5.75,13.06-12.93,13.11h-.09Z"/>
    <path class="cls-1" d="m51.35,40.53c-.46-.81-1.32-1.49-2.57-2.03.58-.75.73-1.55.49-2.56-.42-1.76-2.09-2.41-3-2.52h-4.67c-.16,0-.29.12-.29.28v15.37h1.4c1.29,0,2.17.01,2.77.01,1.29,0,1.36-.01,1.47-.03,2.81-.57,4.05-2.1,4.59-3.28.85-1.86.5-4.02-.19-5.23Zm-4.66-3.04c-.14.18-.34.27-.61.27h-2.32v-1.91h2.28c.11,0,.69.03.84.65.07.28.02.71-.19.99Zm-2.93,2.73h2.41c1.28,0,2.63.8,3.04,1.52.31.55.61,1.85.09,3-.32.7-1.1,1.87-2.72,1.87h0s-1.48,0-2.82,0v-6.39Z"/>
  </g>
</svg>